<svg width="32" height="32" viewBox="0 0 32 32" fill="none" xmlns="http://www.w3.org/2000/svg">
<path d="M27.9092 0.909348C28.7879 0.0306678 30.2121 0.0306678 31.0908 0.909348C31.9693 1.78804 31.9694 3.21237 31.0908 4.09099L19.1816 16.0002L31.0908 27.9093C31.9693 28.788 31.9694 30.2124 31.0908 31.091C30.2122 31.9696 28.7879 31.9695 27.9092 31.091L16 19.1818L4.09082 31.091C3.2122 31.9696 1.78787 31.9695 0.90918 31.091C0.0305 30.2123 0.0305 28.788 0.90918 27.9093L12.8184 16.0002L0.90918 4.09099C0.0305 3.21231 0.0305 1.78803 0.90918 0.909348C1.78786 0.0306678 3.21214 0.0306678 4.09082 0.909348L16 12.8185L27.9092 0.909348Z" fill="url(#paint0_linear_240_2644)"/>
<defs>
<linearGradient id="paint0_linear_240_2644" x1="15.9998" y1="0.250168" x2="15.9999" y2="22.4431" gradientUnits="userSpaceOnUse">
<stop stop-color="white" stop-opacity="0.2"/>
<stop offset="1" stop-color="white"/>
</linearGradient>
</defs>
</svg>
