<svg width="14" height="16" viewBox="0 0 14 16" fill="none" xmlns="http://www.w3.org/2000/svg">
<path d="M1.64575 11.6502V4.13333C1.64575 3.48284 1.7614 2.1963 2.80224 1.67591C3.84307 1.15551 6.12713 0.880859 7.06677 0.880859C8.12688 0.880859 10.4495 1.15551 11.259 1.67591C12.0686 2.1963 12.3673 3.48284 12.4155 4.13333C12.4155 4.13333 12.271 11.9393 12.1264 12.662C11.9818 13.3848 11.0566 14.5991 9.95798 14.8303C8.85932 15.0616 7.47636 15.1195 6.92221 15.1195C6.51262 15.1195 5.31759 15.0472 3.81416 14.7581C2.31073 14.469 1.74213 12.5657 1.64575 11.6502Z" stroke="white" stroke-opacity="0.7" stroke-width="1.125"/>
<path d="M3.73718 9.03848C3.90584 8.77347 4.38771 8.40245 4.96595 9.03848M9.07702 9.0382C9.24568 8.77319 9.72755 8.40216 10.3058 9.0382" stroke="white" stroke-opacity="0.7" stroke-width="0.75" stroke-linecap="round"/>
<path d="M13.6374 5.94019C13.6302 5.88253 13.6147 5.81978 13.5925 5.75344C13.3869 5.13948 12.5659 5.36571 12.4955 6.00933C12.2388 8.35711 12.0482 11.236 12.5532 11.1441C13.1893 11.0285 13.3965 10.4696 13.4206 10.2045C13.5169 8.97583 13.6952 6.40277 13.6374 5.94019Z" fill="white" fill-opacity="0.7"/>
<path d="M0.362236 5.94019C0.369444 5.88253 0.384964 5.81978 0.407172 5.75344C0.612716 5.13948 1.43373 5.36571 1.50411 6.00933C1.76086 8.35711 1.95146 11.236 1.44644 11.1441C0.810374 11.0285 0.60317 10.4696 0.579077 10.2045C0.482703 8.97583 0.304412 6.40277 0.362236 5.94019Z" fill="white" fill-opacity="0.7"/>
</svg>
