<svg width="32" height="32" viewBox="0 0 32 32" fill="none" xmlns="http://www.w3.org/2000/svg">
<path opacity="0.5" d="M30.4697 16C31.3149 16 32.0076 15.3133 31.9269 14.472C31.6099 11.1671 30.2704 8.02845 28.0759 5.50363C25.5453 2.59227 22.0481 0.693141 18.2283 0.155924C14.4084 -0.381292 10.5231 0.479577 7.2877 2.58002C4.05229 4.68046 1.68462 7.87906 0.620658 11.5869C-0.443305 15.2947 -0.131927 19.262 1.49746 22.7584C3.12684 26.2548 5.96453 29.0449 9.48802 30.6149C13.0115 32.1848 16.9836 32.429 20.6728 31.3024C23.8722 30.3255 26.6722 28.3746 28.6933 25.7407C29.2078 25.0702 28.9846 24.1206 28.2681 23.6725C27.5516 23.2244 26.614 23.449 26.0845 24.1076C24.4657 26.1213 22.2723 27.614 19.779 28.3754C16.7954 29.2864 13.5832 29.089 10.7336 27.8193C7.88413 26.5496 5.58925 24.2933 4.27153 21.4657C2.95382 18.638 2.70201 15.4296 3.56245 12.431C4.4229 9.43245 6.33767 6.84569 8.95421 5.14702C11.5707 3.44836 14.7129 2.75216 17.8021 3.18661C20.8912 3.62107 23.7194 5.15693 25.766 7.5114C27.4762 9.47901 28.5443 11.9076 28.8491 14.4732C28.9488 15.3125 29.6246 16 30.4697 16Z" fill="url(#paint0_linear_240_2382)"/>
<path d="M30.4697 16C31.3149 16 32.0076 15.3133 31.9269 14.472C31.7254 12.3719 31.11 10.3272 30.1107 8.45765C28.8704 6.13713 27.0769 4.15831 24.8891 2.69649C22.7013 1.23466 20.1868 0.334949 17.5683 0.0770444C14.9497 -0.18086 12.308 0.211005 9.87707 1.21793C7.44614 2.22485 5.30106 3.81575 3.63183 5.84971C1.96261 7.88366 0.820761 10.2979 0.307436 12.8786C-0.205889 15.4592 -0.0748471 18.1266 0.688954 20.6446C1.3043 22.6731 2.31504 24.5541 3.65757 26.1816C4.19537 26.8335 5.17074 26.8293 5.76835 26.2317C6.36595 25.6341 6.35767 24.6701 5.83476 24.0061C4.84025 22.7434 4.08686 21.3028 3.61768 19.7561C2.99998 17.7199 2.89401 15.5627 3.30914 13.4756C3.72428 11.3886 4.64771 9.43617 5.99764 7.79128C7.34758 6.14638 9.08234 4.85979 11.0483 4.04547C13.0142 3.23116 15.1506 2.91425 17.2683 3.12282C19.386 3.33139 21.4195 4.05901 23.1888 5.24121C24.9581 6.42342 26.4085 8.02372 27.4116 9.90037C28.1735 11.3258 28.6595 12.8772 28.8491 14.4733C28.9488 15.3125 29.6246 16 30.4697 16Z" fill="url(#paint1_linear_240_2382)"/>
<path d="M24.9698 15.995C25.7101 15.995 26.3192 15.3923 26.2232 14.6582C25.9618 12.659 25.1178 10.7696 23.7822 9.23303C22.152 7.35748 19.8991 6.13403 17.4383 5.78795C14.9775 5.44187 12.4745 5.99645 10.3902 7.34959C8.30586 8.70273 6.78057 10.7633 6.09515 13.1519C5.40973 15.5406 5.61032 18.0964 6.66 20.3489C7.70968 22.6013 9.53776 24.3987 11.8077 25.4101C14.0775 26.4215 16.6364 26.5788 19.0131 25.8531C20.9602 25.2585 22.6776 24.104 23.9593 22.5476C24.43 21.9762 24.2331 21.1422 23.6054 20.7497C22.9777 20.3571 22.1584 20.5579 21.6622 21.1073C20.7422 22.1256 19.5584 22.8834 18.2301 23.289C16.4716 23.826 14.5783 23.7096 12.8988 22.9613C11.2193 22.2129 9.86667 20.883 9.09001 19.2164C8.31335 17.5498 8.16493 15.6588 8.67208 13.8914C9.17922 12.124 10.3078 10.5994 11.85 9.59821C13.3922 8.59702 15.2442 8.18667 17.0649 8.44274C18.8857 8.69881 20.5526 9.60405 21.7588 10.9918C22.67 12.04 23.2719 13.3102 23.5118 14.6614C23.6413 15.3903 24.2295 15.995 24.9698 15.995Z" fill="url(#paint2_linear_240_2382)"/>
<path opacity="0.5" d="M20.731 16.0061C20.731 18.6243 18.6086 20.7467 15.9905 20.7467C13.3724 20.7467 11.25 18.6243 11.25 16.0061C11.25 13.388 13.3724 11.2656 15.9905 11.2656C18.6086 11.2656 20.731 13.388 20.731 16.0061ZM13.3979 16.0061C13.3979 17.438 14.5586 18.5988 15.9905 18.5988C17.4224 18.5988 18.5831 17.438 18.5831 16.0061C18.5831 14.5743 17.4224 13.4135 15.9905 13.4135C14.5586 13.4135 13.3979 14.5743 13.3979 16.0061Z" fill="url(#paint3_linear_240_2382)"/>
<path d="M19.6571 16.0061C20.2502 16.0061 20.7431 16.493 20.6099 17.0709C20.5053 17.5249 20.3338 17.9629 20.0995 18.3701C19.6858 19.0893 19.0906 19.6872 18.3733 20.1043C17.6561 20.5213 16.842 20.7428 16.0123 20.7466C15.5425 20.7488 15.0771 20.6811 14.6308 20.5475C14.0626 20.3773 13.8833 19.7081 14.1767 19.1927C14.4701 18.6772 15.1334 18.5238 15.7233 18.585C15.8158 18.5945 15.909 18.5992 16.0024 18.5987C16.4562 18.5967 16.9014 18.4755 17.2937 18.2474C17.686 18.0194 18.0115 17.6923 18.2378 17.299C18.2844 17.218 18.3265 17.1347 18.3639 17.0496C18.6026 16.5067 19.064 16.0061 19.6571 16.0061Z" fill="url(#paint4_linear_240_2382)"/>
<defs>
<linearGradient id="paint0_linear_240_2382" x1="16" y1="0" x2="16" y2="32" gradientUnits="userSpaceOnUse">
<stop stop-color="#FF3300"/>
<stop offset="1" stop-color="#FF3300" stop-opacity="0.1"/>
</linearGradient>
<linearGradient id="paint1_linear_240_2382" x1="16" y1="0" x2="16" y2="32" gradientUnits="userSpaceOnUse">
<stop stop-color="#FF3300"/>
<stop offset="1" stop-color="#FF3300" stop-opacity="0.1"/>
</linearGradient>
<linearGradient id="paint2_linear_240_2382" x1="16.0028" y1="5.6875" x2="16.0028" y2="26.3024" gradientUnits="userSpaceOnUse">
<stop stop-color="#FF3300"/>
<stop offset="1" stop-color="#FF3300" stop-opacity="0.1"/>
</linearGradient>
<linearGradient id="paint3_linear_240_2382" x1="15.9905" y1="11.2656" x2="15.9905" y2="20.7467" gradientUnits="userSpaceOnUse">
<stop stop-color="#FF3300"/>
<stop offset="1" stop-color="#FF3300" stop-opacity="0.1"/>
</linearGradient>
<linearGradient id="paint4_linear_240_2382" x1="15.9905" y1="11.2656" x2="15.9905" y2="20.7467" gradientUnits="userSpaceOnUse">
<stop stop-color="#FF3300"/>
<stop offset="1" stop-color="#FF3300" stop-opacity="0.1"/>
</linearGradient>
</defs>
</svg>
