<svg width="55" height="51" viewBox="0 0 55 51" fill="none" xmlns="http://www.w3.org/2000/svg">
<path fill-rule="evenodd" clip-rule="evenodd" d="M4.30289 0.16542C3.31173 0.525496 1.76623 1.82484 1.15714 2.81004C0.992236 3.0768 0.850826 3.29383 0.729567 3.52673C-0.0244645 4.97499 0.000671841 7.03703 0.000671841 25.4886C0.000671841 43.6629 -0.0522138 45.8545 0.780447 47.242C0.948191 47.5215 1.15187 47.7684 1.39917 48.1068C1.86967 48.7501 2.65688 49.4897 3.25882 49.8533L4.30289 50.4839L26.8101 50.5438C46.8635 50.5969 49.4255 50.5647 50.3108 50.2481C52.2303 49.5617 53.5232 48.1191 54.194 45.9152C54.5449 44.7625 54.5564 44.107 54.5564 25.2627C54.5564 6.24574 54.548 5.77285 54.1843 4.57687C53.6869 2.942 52.5837 1.44855 51.3003 0.673455L50.2542 0.0415685L27.5532 0.0037301C14.803 -0.0174376 4.61137 0.0535008 4.30289 0.16542ZM2.97524 4.92862C3.25186 4.41429 3.78735 3.79298 4.16522 3.54753C4.83874 3.11021 5.28526 3.10143 27.2387 3.09153C45.7457 3.08342 49.7288 3.13476 50.2229 3.38878C50.9977 3.78691 51.7507 4.90046 51.9927 6.00569C52.1212 6.59321 52.1683 13.1093 52.1348 25.7557C52.0886 43.2323 52.0613 44.6823 51.7648 45.3491C51.295 46.4057 50.3553 47.1851 49.2312 47.4501C48.5711 47.6057 41.0003 47.6613 26.5463 47.6168C6.54169 47.5551 4.80744 47.5199 4.2789 47.167C3.5089 46.6529 2.79968 45.5788 2.55912 44.5625C2.42291 43.9869 2.37879 37.8589 2.41687 24.7957L2.47216 5.86338L2.97524 4.92862ZM9.88662 13.6655C9.68524 13.9132 9.52047 14.3692 9.52047 14.6788C9.52047 14.9885 9.68524 15.4445 9.88662 15.6922C10.2475 16.136 10.4968 16.1426 27.3293 16.1426C28.3632 16.1426 29.3375 16.1428 30.2558 16.1431C43.0944 16.1466 44.959 16.1471 45.1987 15.3797C45.2394 15.2493 45.2332 15.0967 45.226 14.9183C45.223 14.8431 45.2197 14.7634 45.2197 14.6788C45.2197 14.5943 45.223 14.5145 45.226 14.4394C45.2332 14.2609 45.2394 14.1084 45.1987 13.978C44.959 13.2106 43.0944 13.2111 30.2558 13.2146C29.3375 13.2148 28.3632 13.2151 27.3293 13.2151C10.4968 13.2151 10.2475 13.2216 9.88662 13.6655ZM9.82346 24.436C9.45182 24.9411 9.4326 25.8169 9.78025 26.4019C10.0325 26.8262 10.4053 26.8406 22.5496 26.8944C32.368 26.9381 35.1577 26.8886 35.5169 26.6643C36.0983 26.3011 36.2409 25.0853 35.7759 24.4534C35.4711 24.039 35.0204 24.0242 22.7933 24.0242C10.7544 24.0242 10.1114 24.0447 9.82346 24.436ZM9.81064 35.0373C9.34545 35.6696 9.48807 36.8856 10.0697 37.2455C10.7028 37.6375 40.0973 37.6672 40.7007 37.2765C41.4766 36.7741 41.6121 35.8002 41.009 35.0584C40.6488 34.6153 40.3989 34.608 25.3847 34.608C10.6085 34.608 10.1164 34.6216 9.81064 35.0373Z" fill="url(#paint0_linear_263_3032)"/>
<defs>
<linearGradient id="paint0_linear_263_3032" x1="27.2782" y1="0" x2="27.2782" y2="50.5645" gradientUnits="userSpaceOnUse">
<stop stop-color="#FF723A"/>
<stop offset="1" stop-color="#B52F02"/>
</linearGradient>
</defs>
</svg>
