<svg width="28" height="34" viewBox="0 0 28 34" fill="none" xmlns="http://www.w3.org/2000/svg">
<path d="M15.4998 1.34744C15.5118 1.24759 15.3855 1.19446 15.3226 1.27287L1.81081 18.1006C1.27307 18.7703 1.0042 19.1051 1.00009 19.3879C0.996516 19.6338 1.10207 19.8677 1.28634 20.0222C1.49831 20.2 1.9183 20.2 2.75828 20.2H13.8872C13.9472 20.2 13.9937 20.2524 13.9865 20.312L12.5002 32.6526C12.4882 32.7524 12.6145 32.8055 12.6774 32.7271L26.1892 15.8994C26.7269 15.2297 26.9958 14.8949 26.9999 14.6121C27.0035 14.3662 26.8979 14.1323 26.7137 13.9778C26.5017 13.8 26.0817 13.8 25.2417 13.8H14.1128C14.0528 13.8 14.0063 13.7476 14.0135 13.688L15.4998 1.34744Z" stroke="url(#paint0_linear_240_2377)" stroke-width="2" stroke-linecap="round"/>
<defs>
<linearGradient id="paint0_linear_240_2377" x1="14" y1="1" x2="14" y2="33" gradientUnits="userSpaceOnUse">
<stop stop-color="#FF3300"/>
<stop offset="1" stop-color="#FF3300" stop-opacity="0.1"/>
</linearGradient>
</defs>
</svg>
