<svg width="40" height="40" viewBox="0 0 40 40" fill="none" xmlns="http://www.w3.org/2000/svg">
<rect width="40" height="40" rx="20" fill="white"/>
<path d="M14.47 13.001C14.4697 13.5314 14.2587 14.04 13.8835 14.4149C13.5082 14.7898 12.9994 15.0003 12.469 15C11.9385 14.9997 11.4299 14.7888 11.0551 14.4135C10.6802 14.0382 10.4697 13.5294 10.47 12.999C10.4702 12.4686 10.6812 11.96 11.0565 11.5851C11.4317 11.2102 11.9405 10.9997 12.471 11C13.0014 11.0003 13.51 11.2112 13.8849 11.5865C14.2598 11.9618 14.4702 12.4706 14.47 13.001ZM14.53 16.481H10.53V29.001H14.53V16.481ZM20.85 16.481H16.87V29.001H20.81V22.431C20.81 18.771 25.58 18.431 25.58 22.431V29.001H29.53V21.071C29.53 14.901 22.47 15.131 20.81 18.161L20.85 16.481Z" fill="#030808"/>
</svg>
