<svg width="48" height="51" viewBox="0 0 48 51" fill="none" xmlns="http://www.w3.org/2000/svg">
<path fill-rule="evenodd" clip-rule="evenodd" d="M0.315383 5.81272C1.80727 2.88852 9.06957 0.701483 19.4863 0.0392965C21.3066 -0.0763394 29.4898 0.0819791 31.4515 0.270745C39.6542 1.06011 45.5297 2.97437 47.2473 5.41695C47.8466 6.26907 48.001 7.45422 47.629 8.34466C47.3481 9.01706 46.0304 10.8205 35.7717 24.572L28.9414 33.728L28.9338 37.5413C28.9286 40.1435 28.8622 41.4953 28.7247 41.7984C28.6137 42.0425 26.7622 44.1322 24.6101 46.4422C21.0651 50.2473 20.6469 50.6421 20.1596 50.6421C19.8255 50.6421 19.5011 50.5087 19.3031 50.29C19.0002 49.9555 18.982 49.5318 18.9378 41.8029L18.8913 33.6681L16.2433 30.148C6.40492 17.0696 0.412109 8.98124 0.217318 8.5182C-0.10683 7.74824 -0.0636552 6.55574 0.315383 5.81272ZM5.51297 12.0771C5.51297 12.1166 9.03359 16.8376 13.3364 22.568L21.1598 32.9871L21.2435 39.8289L21.3271 46.6707L23.9774 43.8452L26.6276 41.0197L26.6549 37.0034L26.6822 32.9871L34.5028 22.5391C38.804 16.7928 42.3012 12.0691 42.2743 12.0422C42.2473 12.0152 41.8215 12.1468 41.3276 12.3344C37.1873 13.9076 28.411 14.8141 20.4904 14.4868C15.1307 14.2654 9.80104 13.4643 6.72623 12.418C6.05885 12.1909 5.51297 12.0376 5.51297 12.0771ZM2.75896 6.31157C5.09176 4.26343 12.1117 2.64805 20.228 2.29211C21.8449 2.22116 23.2432 2.15288 23.3353 2.14033C23.931 2.05933 31.354 2.4869 33.1732 2.70712C38.9855 3.41031 43.9821 4.9775 45.2621 6.49883C45.8214 7.16336 45.7837 7.5051 45.083 8.12026C43.28 9.70318 38.3003 11.1941 32.4556 11.9006C27.5484 12.4938 19.2238 12.409 14.1313 11.7137C9.04396 11.0192 4.39627 9.55775 2.79026 8.1477C1.99369 7.44836 1.98599 6.99033 2.75896 6.31157Z" fill="url(#paint0_linear_263_3037)"/>
<defs>
<linearGradient id="paint0_linear_263_3037" x1="23.915" y1="0" x2="23.915" y2="50.6421" gradientUnits="userSpaceOnUse">
<stop stop-color="#FF723A"/>
<stop offset="1" stop-color="#B52F02"/>
</linearGradient>
</defs>
</svg>
