<svg width="56" height="67" viewBox="0 0 56 67" fill="none" xmlns="http://www.w3.org/2000/svg">
<path fill-rule="evenodd" clip-rule="evenodd" d="M11.314 32.1928C7.7498 33.0979 5.94611 36.774 6.22893 42.5568C6.61869 50.5207 10.7511 56.0601 17.999 58.3336C23.6418 60.1037 32.3355 60.1238 37.9227 58.3796C43.8144 56.5404 47.7612 52.3885 49.2338 46.4801C49.8015 44.2019 49.8507 39.2077 49.3225 37.4829C48.3333 34.2529 46.806 32.645 44.2331 32.1242C42.9355 31.8617 42.1244 31.944 38.6744 32.6875C34.2858 33.6333 31.9715 33.8911 27.8687 33.8919C23.8237 33.8924 21.9149 33.6757 17.2386 32.6848C14.0268 32.0042 12.542 31.8809 11.314 32.1928ZM8.91944 41.6172C8.89895 37.9602 9.74236 35.8218 11.5194 35.0254C12.3786 34.6404 13.1904 34.7016 16.5292 35.4037C25.5137 37.2927 31.2773 37.2108 41.0234 35.0555C43.2852 34.5552 44.2957 34.6982 45.316 35.6627C46.5621 36.8408 47.0437 38.6428 47.008 41.9931C46.9885 43.8174 46.881 44.8168 46.5835 45.9395C44.6949 53.0699 39.4533 56.4536 29.654 56.8689C24.2224 57.0991 19.5952 56.3104 15.9356 54.531C14.1621 53.6686 11.6244 51.216 10.7404 49.51C9.52831 47.1707 8.93635 44.6052 8.91944 41.6172Z" fill="url(#paint0_linear_263_3027)"/>
<path d="M12.5578 40.8526C12.3207 41.4763 12.5982 42.9631 13.1953 44.2673C14.1636 46.3826 16.2804 47.938 18.6466 48.2731C21.2702 48.6446 24.5025 47.5349 23.4055 46.6393C22.9006 46.227 13.5469 40.6261 13.1562 40.5023C12.8228 40.3965 12.7052 40.4652 12.5578 40.8526Z" fill="url(#paint1_linear_263_3027)"/>
<path d="M38.7683 42.8115C36.5978 44.1354 34.2722 45.557 33.6004 45.9707C32.9286 46.3841 32.3537 46.8522 32.3229 47.0108C32.2449 47.4128 33.7819 48.1013 35.2081 48.3034C39.1231 48.8577 42.61 46.2952 43.3662 42.3078C43.5641 41.2641 43.376 40.3925 42.9543 40.4C42.8226 40.4023 40.9388 41.4876 38.7683 42.8115Z" fill="url(#paint2_linear_263_3027)"/>
<path fill-rule="evenodd" clip-rule="evenodd" d="M26.0613 0.251614C23.4758 1.17545 21.7935 3.69626 22.0014 6.33546C22.1797 8.60013 23.7203 10.6921 25.7373 11.4085L26.6472 11.7315V14.0931V16.4548L24.3452 16.6857C17.3918 17.3831 11.8524 19.8402 7.56263 24.13C-1.77249 33.4653 -2.60762 50.5002 5.85083 59.0513C9.835 63.0792 15.838 65.5529 23.5333 66.3382C26.617 66.6528 32.456 66.4746 35.3857 65.9765C44.0227 64.5077 49.9165 60.8012 53.1512 54.8042C58.2831 45.29 56.0761 31.5317 48.1953 23.9077C43.847 19.7012 38.4825 17.3685 31.5802 16.6833L29.2782 16.4548L29.2814 14.0962L29.2845 11.7373L30.3619 11.2713C31.6603 10.7096 32.791 9.62638 33.4063 8.3547C34.037 7.0507 34.052 4.80238 33.438 3.53709C32.7854 2.19174 31.8242 1.20044 30.56 0.568643C29.5892 0.0836112 29.1945 -0.0065926 28.0736 0.000360584C27.3409 0.00487076 26.4352 0.118001 26.0613 0.251614ZM24.8619 5.89309C24.8619 4.57368 25.1795 3.97814 26.2887 3.21724C27.1509 2.62584 28.8907 2.69726 29.8248 3.36251C30.526 3.86182 31.1491 5.06134 31.1491 5.91169C31.1491 6.7581 30.5271 7.96081 29.834 8.4543C28.4774 9.42042 26.3995 9.08441 25.3682 7.73211C24.9431 7.1751 24.8619 6.87988 24.8619 5.89309ZM4.22961 34.4913C7.21929 26.1706 14.1176 20.8573 23.6404 19.5405C25.8065 19.2411 32.3205 19.4552 34.3521 19.8925C39.0421 20.9022 42.928 22.835 46.016 25.6941C50.7757 30.1009 53.4168 37.1317 53.0913 44.5287C52.865 49.6758 51.2786 53.7744 48.2733 56.9772C45.4996 59.933 42.2357 61.6933 37.4528 62.813C34.1662 63.5823 32.1241 63.7898 27.9627 63.7772C19.1222 63.7503 12.7508 61.7952 8.47913 57.7986C5.94855 55.4309 4.36285 52.7209 3.40914 49.1342C2.95173 47.4137 2.90813 46.9373 2.89216 43.4965C2.87336 39.4119 3.16352 37.4586 4.22961 34.4913Z" fill="url(#paint3_linear_263_3027)"/>
<path fill-rule="evenodd" clip-rule="evenodd" d="M24.8619 5.89309C24.8619 4.57368 25.1795 3.97814 26.2887 3.21724C27.1509 2.62584 28.8907 2.69726 29.8248 3.36251C30.526 3.86182 31.1491 5.06134 31.1491 5.91169C31.1491 6.7581 30.5271 7.96081 29.834 8.4543C28.4774 9.42042 26.3995 9.08441 25.3682 7.73211C24.9431 7.1751 24.8619 6.87988 24.8619 5.89309Z" fill="url(#paint4_linear_263_3027)"/>
<defs>
<linearGradient id="paint0_linear_263_3027" x1="27.9592" y1="0" x2="27.9592" y2="66.495" gradientUnits="userSpaceOnUse">
<stop stop-color="#FF723A"/>
<stop offset="1" stop-color="#B52F02"/>
</linearGradient>
<linearGradient id="paint1_linear_263_3027" x1="27.9592" y1="0" x2="27.9592" y2="66.495" gradientUnits="userSpaceOnUse">
<stop stop-color="#FF723A"/>
<stop offset="1" stop-color="#B52F02"/>
</linearGradient>
<linearGradient id="paint2_linear_263_3027" x1="27.9592" y1="0" x2="27.9592" y2="66.495" gradientUnits="userSpaceOnUse">
<stop stop-color="#FF723A"/>
<stop offset="1" stop-color="#B52F02"/>
</linearGradient>
<linearGradient id="paint3_linear_263_3027" x1="27.9592" y1="0" x2="27.9592" y2="66.495" gradientUnits="userSpaceOnUse">
<stop stop-color="#FF723A"/>
<stop offset="1" stop-color="#B52F02"/>
</linearGradient>
<linearGradient id="paint4_linear_263_3027" x1="27.9592" y1="0" x2="27.9592" y2="66.495" gradientUnits="userSpaceOnUse">
<stop stop-color="#FF723A"/>
<stop offset="1" stop-color="#B52F02"/>
</linearGradient>
</defs>
</svg>
