<svg width="1422" height="252" viewBox="0 0 1422 252" fill="none" xmlns="http://www.w3.org/2000/svg">
<path d="M38.0838 147.242L0 147.021V151.802L39.3008 152.008L277.868 152.119L280.204 146.989C281.489 144.168 282.73 142.196 282.96 142.607C283.484 143.542 295.162 175.979 296.116 179.152C297.027 182.18 298.91 183.483 300.679 182.311C301.404 181.831 304.46 176.149 307.472 169.686C307.569 169.477 307.665 169.272 307.759 169.069C307.863 168.847 307.965 168.628 308.064 168.413C308.068 168.406 308.071 168.398 308.075 168.391C308.078 168.385 308.081 168.378 308.084 168.372C313.766 156.145 313.497 156.603 318.536 166.376C323.092 175.213 323.956 176.355 324.933 174.826C326.558 172.283 352.797 97.2701 352.797 95.1675C352.797 92.0618 354.239 97.2001 359.323 118.418C362.399 131.257 366.906 149.469 369.34 158.891C371.774 168.313 374.657 179.786 375.748 184.387C376.839 188.988 378.223 193.284 378.825 193.934C380.531 195.777 382.387 193.985 383.431 189.488C384.231 186.035 397.916 100.66 407.354 40.2307C409.231 28.2101 410.862 18.2754 410.977 18.1535C411.371 17.7368 420.465 73.1342 435.52 167.655C441.802 207.096 444.079 221.134 446.373 234.582C446.859 237.431 447.529 240.21 447.861 240.757C448.521 241.844 451.089 242.114 451.646 241.156C452.648 239.436 467.192 150.222 467.192 145.799C467.192 144.674 467.446 143.761 467.756 143.772C468.067 143.782 470.472 148.969 473.103 155.298C478.196 167.554 479.787 169.472 482.218 166.293C482.913 165.384 485.25 155.392 487.785 142.488C492.895 116.473 502.888 67.2103 504.337 60.8905C505.535 55.6654 505.097 54.2559 509.667 78.0206C511.522 87.6613 514.764 103.975 516.874 114.273C518.984 124.571 521.682 137.837 522.869 143.753C524.055 149.669 527.395 166.161 530.289 180.403C533.183 194.645 537.472 215.978 539.82 227.81C544.835 253.082 544.366 251.225 545.88 251.839C547.906 252.663 549.044 250.47 551.114 241.753C552.979 233.899 564.977 187.503 575.677 146.766C578.292 136.811 580.647 128.924 580.911 129.237C581.392 129.813 582.698 133.69 592.511 163.671C596.044 174.465 598.215 180.005 598.913 180.005C600.138 180.005 600.259 179.772 607.134 164.269L612.345 152.517L779.439 152.2C853.785 152.908 872.201 151.728 872.201 151.728C872.201 151.728 887.585 106.367 888.399 103.724C888.736 102.628 889.041 101.952 889.076 102.221C889.257 103.586 897.119 143.36 900.792 161.488C904.625 180.407 907.512 193.059 909.573 199.977C910.233 202.19 910.676 202.573 912.335 202.367C913.897 202.174 914.589 201.371 915.633 198.537C917.185 194.327 929.9 157.368 932.282 150.144C933.183 147.411 934.09 145.178 934.297 145.181C934.504 145.185 937.213 148.662 940.318 152.908C949.369 165.287 950.548 166.3 953.309 164.078C954.12 163.425 956.909 153.46 961.392 135.196C965.156 119.858 968.475 106.673 968.765 105.897C969.26 104.571 971.919 117.564 985.932 189.773C990.849 215.11 991.874 218.412 994.087 216.037C994.684 215.396 1000.1 199.656 1006.12 181.059C1012.14 162.463 1017.35 146.941 1017.71 146.566C1018.06 146.188 1020.47 148.83 1023.11 152.491C1025.73 156.125 1028.72 160.084 1029.77 161.289C1031.82 163.665 1035.14 164.217 1036.55 162.417C1037.32 161.433 1043.56 140.762 1051.35 113.408C1053.14 107.12 1054.75 101.828 1054.92 101.646C1055.09 101.463 1057.18 109.296 1059.56 119.052C1066.55 147.693 1069.63 159.785 1073.94 175.515C1079.81 196.898 1079.67 196.507 1081.64 196.803C1083.75 197.12 1084.16 196.163 1094.21 167.862C1098.26 156.469 1101.67 147.025 1101.79 146.876C1101.91 146.727 1103.85 148.077 1106.1 149.876L1110.2 153.146L1399.47 151.959C1414.4 151.821 1421.96 152.673 1421.96 150.951C1421.96 149.641 1422.29 148.238 1420.95 147.756C1418.52 146.887 1412.34 147.559 1402.61 147.505L1111.21 148.342L1107.4 144.757C1103.21 140.817 1100.72 140.248 1098.58 142.735C1097.84 143.595 1093.89 153.826 1089.8 165.471C1085.71 177.116 1082.23 186.499 1082.06 186.323C1081.3 185.524 1071.93 149.146 1061.09 104.919C1059.16 97.0311 1057.16 90.1161 1056.65 89.552C1054.72 87.3968 1053.22 89.4883 1050.86 97.6359C1048.35 106.326 1035.46 150.241 1034.17 154.517C1033.74 155.941 1033.19 157.084 1032.95 157.056C1032.71 157.028 1029.62 152.995 1026.1 148.093C1022.24 142.739 1019.08 139.087 1018.17 138.947C1014.6 138.401 1014.1 139.643 1000.64 182C997.061 193.281 993.953 202.514 993.739 202.516C993.525 202.519 991.39 192.214 988.994 179.615C986.598 167.016 983.009 148.461 981.018 138.383C979.026 128.304 976.096 113.467 974.508 105.411C971.56 90.4659 970.403 87.4669 968.4 89.5879C967.821 90.2014 963.796 104.921 959.457 122.298C955.118 139.675 951.302 154.652 950.978 155.58C950.455 157.075 949.716 156.383 944.478 149.488C936.945 139.572 936.173 138.781 934.037 138.781C930.621 138.781 929.743 140.796 918.054 175.432C915.022 184.415 912.526 191.511 912.507 191.199C912.487 190.889 911.644 187.124 910.633 182.833C908.843 175.235 901.371 138.98 895.157 107.739C893.461 99.2119 891.697 91.7551 891.238 91.1686C890.778 90.5822 889.716 90.2094 888.879 90.34C887.598 90.54 885.858 95.0815 877.949 118.862C872.776 134.419 868.52 147.199 868.493 147.264C868.466 147.328 865.035 147.568 776.71 146.873C669.686 147.48 609.825 147.859 609.147 148.454C608.615 148.921 606.345 153.603 604.103 158.858C601.861 164.113 599.824 168.422 599.577 168.432C599.33 168.443 598.122 165.314 596.894 161.48C587.444 131.995 583.492 120.104 582.844 119.212C582.431 118.642 581.217 118.284 580.147 118.415C578.296 118.643 577.987 119.437 573.85 134.59C569.186 151.674 556.544 199.921 550.833 222.432C547.721 234.697 546.215 238.757 546.215 234.88C546.215 233.586 542.891 216.939 527.301 140.167C516.901 88.9545 514.413 76.5419 511.171 59.6953C508.161 44.0599 507.673 42.5652 505.575 42.5652C503.743 42.5652 503.093 44.0192 501.122 52.5246C497.497 68.1656 487.133 118.872 482.231 144.948C480.913 151.959 479.756 157.785 479.66 157.895C479.564 158.004 477.008 151.967 473.981 144.479C470.953 136.991 468.014 130.677 467.449 130.448C465.471 129.645 464.341 131.9 463.464 138.399C461.116 155.785 451.09 217.992 450.08 221.436C449.442 223.614 449.294 222.822 443.836 187.972C437.394 146.847 427.023 81.8904 423.864 62.8823C418.467 30.4099 413.677 2.63673 413.288 1.5643C412.707 -0.0371696 411.063 -0.493715 409.779 0.591461C408.302 1.83838 408.457 0.926903 393.376 96.9339C386.165 142.832 380.056 180.388 379.798 180.394C379.541 180.399 379.116 178.986 378.855 177.254C378.593 175.522 376.478 166.648 374.155 157.534C371.833 148.421 366.966 128.685 363.34 113.678C359.715 98.67 356.326 85.8527 355.809 85.1938C354.526 83.5573 352.253 83.6871 351.363 85.4479C350.96 86.2463 346.376 99.3138 341.178 114.487C332.793 138.964 326.803 156.188 324.244 163.187L323.401 165.492L319.844 160C316.798 155.298 315.929 154.472 313.796 154.255C312.426 154.116 310.788 154.456 310.156 155.012C309.524 155.567 306.915 160.44 304.359 165.84L299.71 175.66L293.023 156.718C285.16 134.446 284.703 133.395 282.878 133.395C281.062 133.395 280.547 134.188 277.561 141.583L275.058 147.779L38.0838 147.242Z" fill="url(#paint0_linear_240_1988)"/>
<path fill-rule="evenodd" clip-rule="evenodd" d="M504.551 59.9309C504.557 59.9014 504.564 59.8721 504.57 59.843C504.585 59.7735 504.6 59.7052 504.615 59.6383C504.594 59.7333 504.573 59.8309 504.551 59.9309ZM409.758 0.609138C409.751 0.614731 409.745 0.620299 409.738 0.625843C409.731 0.631873 409.724 0.637854 409.717 0.643836C409.73 0.632359 409.744 0.620834 409.758 0.609138ZM1081.48 196.779C1081.5 196.782 1081.52 196.785 1081.53 196.788L1081.64 196.803C1081.58 196.795 1081.53 196.787 1081.48 196.779Z" fill="url(#paint1_linear_240_1988)"/>
<path fill-rule="evenodd" clip-rule="evenodd" d="M308.064 168.413C308.068 168.406 308.071 168.398 308.075 168.391C307.971 168.613 307.866 168.839 307.759 169.069C307.665 169.272 307.569 169.477 307.472 169.686C307.676 169.247 307.874 168.823 308.064 168.413Z" fill="url(#paint2_linear_240_1988)"/>
<defs>
<linearGradient id="paint0_linear_240_1988" x1="1335.61" y1="126.301" x2="28.8477" y2="126.301" gradientUnits="userSpaceOnUse">
<stop stop-color="#FF3300" stop-opacity="0"/>
<stop offset="0.259568" stop-color="#FF3300" stop-opacity="0.99365"/>
<stop offset="0.653186" stop-color="#FF3300"/>
<stop offset="1" stop-color="#FF3300" stop-opacity="0"/>
</linearGradient>
<linearGradient id="paint1_linear_240_1988" x1="1335.61" y1="126.301" x2="28.8477" y2="126.301" gradientUnits="userSpaceOnUse">
<stop stop-color="#FF3300" stop-opacity="0"/>
<stop offset="0.259568" stop-color="#FF3300" stop-opacity="0.99365"/>
<stop offset="0.653186" stop-color="#FF3300"/>
<stop offset="1" stop-color="#FF3300" stop-opacity="0"/>
</linearGradient>
<linearGradient id="paint2_linear_240_1988" x1="1335.61" y1="126.301" x2="28.8477" y2="126.301" gradientUnits="userSpaceOnUse">
<stop stop-color="#FF3300" stop-opacity="0"/>
<stop offset="0.259568" stop-color="#FF3300" stop-opacity="0.99365"/>
<stop offset="0.653186" stop-color="#FF3300"/>
<stop offset="1" stop-color="#FF3300" stop-opacity="0"/>
</linearGradient>
</defs>
</svg>
