<svg width="155" height="41" viewBox="0 0 155 41" fill="none" xmlns="http://www.w3.org/2000/svg">
<path fill-rule="evenodd" clip-rule="evenodd" d="M17.7436 0.209912C18.2738 -0.0686475 18.9104 -0.0700174 19.4419 0.206119L19.4946 0.23457L32.9874 7.81786C34.2004 8.49962 34.2043 10.2184 32.9943 10.9055L16.8681 20.0628V25.3887L24.3149 21.1545V24.8933L16.8681 29.1277V38.2169C16.8681 39.5875 15.3596 40.4441 14.1527 39.7588L0.905118 32.2362C0.345035 31.9181 0 31.3304 0 30.6942V11.3177C4.21014e-06 10.6818 0.344912 10.0941 0.904797 9.77596L17.6909 0.23868L17.7436 0.209912ZM3.29134 12.1585V29.8533L13.5768 35.6937V19.2217C13.5768 18.5856 13.9218 17.9978 14.4819 17.6798L29.1155 9.37005L18.6004 3.46034L3.29134 12.1585Z" fill="white"/>
<path d="M40.4748 24.9221H43.0984V40H40.4748V37.4066C39.1681 39.3969 37.2682 40.392 34.7754 40.392C32.6644 40.392 30.8651 39.6281 29.3775 38.1002C27.8898 36.5522 27.1459 34.6725 27.1459 32.461C27.1459 30.2496 27.8898 28.3799 29.3775 26.8521C30.8651 25.3041 32.6644 24.5301 34.7754 24.5301C37.2682 24.5301 39.1681 25.5252 40.4748 27.5155V24.9221ZM35.1071 37.8589C36.635 37.8589 37.9116 37.3463 38.9369 36.321C39.9622 35.2756 40.4748 33.9889 40.4748 32.461C40.4748 30.9331 39.9622 29.6565 38.9369 28.6312C37.9116 27.5858 36.635 27.0631 35.1071 27.0631C33.5993 27.0631 32.3327 27.5858 31.3074 28.6312C30.2821 29.6565 29.7695 30.9331 29.7695 32.461C29.7695 33.9889 30.2821 35.2756 31.3074 36.321C32.3327 37.3463 33.5993 37.8589 35.1071 37.8589ZM53.6774 24.5301C55.4466 24.5301 56.8639 25.093 57.9294 26.2188C58.9949 27.3245 59.5276 28.8323 59.5276 30.7422V40H56.9041V30.8929C56.9041 29.6666 56.5724 28.7217 55.9089 28.0583C55.2455 27.3748 54.3308 27.033 53.1648 27.033C51.858 27.033 50.8026 27.4451 49.9984 28.2694C49.1942 29.0735 48.7922 30.32 48.7922 32.0087V40H46.1686V24.9221H48.7922V27.0933C49.8577 25.3845 51.4861 24.5301 53.6774 24.5301ZM70.4879 27.4552H66.4772V35.6274C66.4772 36.3712 66.6179 36.904 66.8993 37.2257C67.2009 37.5272 67.6532 37.6881 68.2563 37.7082C68.8595 37.7082 69.6033 37.6881 70.4879 37.6478V40C68.196 40.3016 66.5174 40.1206 65.4519 39.4572C64.3863 38.7737 63.8536 37.4971 63.8536 35.6274V27.4552H60.8682V24.9221H63.8536V21.4843L66.4772 20.7003V24.9221H70.4879V27.4552ZM84.4081 24.9221H87.0317V40H84.4081V37.4066C83.1013 39.3969 81.2015 40.392 78.7086 40.392C76.5977 40.392 74.7984 39.6281 73.3108 38.1002C71.8231 36.5522 71.0792 34.6725 71.0792 32.461C71.0792 30.2496 71.8231 28.3799 73.3108 26.8521C74.7984 25.3041 76.5977 24.5301 78.7086 24.5301C81.2015 24.5301 83.1013 25.5252 84.4081 27.5155V24.9221ZM79.0404 37.8589C80.5683 37.8589 81.8449 37.3463 82.8702 36.321C83.8955 35.2756 84.4081 33.9889 84.4081 32.461C84.4081 30.9331 83.8955 29.6565 82.8702 28.6312C81.8449 27.5858 80.5683 27.0631 79.0404 27.0631C77.5326 27.0631 76.266 27.5858 75.2407 28.6312C74.2154 29.6565 73.7028 30.9331 73.7028 32.461C73.7028 33.9889 74.2154 35.2756 75.2407 36.321C76.266 37.3463 77.5326 37.8589 79.0404 37.8589ZM98.4249 24.5301C100.536 24.5301 102.335 25.3041 103.823 26.8521C105.31 28.3799 106.054 30.2496 106.054 32.461C106.054 34.6725 105.31 36.5522 103.823 38.1002C102.335 39.6281 100.536 40.392 98.4249 40.392C95.932 40.392 94.0322 39.3969 92.7255 37.4066V40H90.1019V18.8909H92.7255V27.5155C94.0322 25.5252 95.932 24.5301 98.4249 24.5301ZM98.0932 37.8589C99.601 37.8589 100.868 37.3463 101.893 36.321C102.918 35.2756 103.431 33.9889 103.431 32.461C103.431 30.9331 102.918 29.6565 101.893 28.6312C100.868 27.5858 99.601 27.0631 98.0932 27.0631C96.5653 27.0631 95.2887 27.5858 94.2634 28.6312C93.2381 29.6565 92.7255 30.9331 92.7255 32.461C92.7255 33.9889 93.2381 35.2756 94.2634 36.321C95.2887 37.3463 96.5653 37.8589 98.0932 37.8589ZM120.765 24.9221H123.388V40H120.765V37.4066C119.458 39.3969 117.558 40.392 115.065 40.392C112.954 40.392 111.155 39.6281 109.667 38.1002C108.18 36.5522 107.436 34.6725 107.436 32.461C107.436 30.2496 108.18 28.3799 109.667 26.8521C111.155 25.3041 112.954 24.5301 115.065 24.5301C117.558 24.5301 119.458 25.5252 120.765 27.5155V24.9221ZM115.397 37.8589C116.925 37.8589 118.201 37.3463 119.227 36.321C120.252 35.2756 120.765 33.9889 120.765 32.461C120.765 30.9331 120.252 29.6565 119.227 28.6312C118.201 27.5858 116.925 27.0631 115.397 27.0631C113.889 27.0631 112.623 27.5858 111.597 28.6312C110.572 29.6565 110.059 30.9331 110.059 32.461C110.059 33.9889 110.572 35.2756 111.597 36.321C112.623 37.3463 113.889 37.8589 115.397 37.8589ZM128.691 28.9931C128.691 29.5761 128.982 30.0486 129.565 30.4104C130.148 30.7522 130.852 31.0337 131.676 31.2548C132.5 31.4558 133.325 31.6971 134.149 31.9785C134.973 32.2399 135.677 32.7023 136.26 33.3657C136.843 34.009 137.134 34.8434 137.134 35.8686C137.134 37.2357 136.602 38.3314 135.536 39.1556C134.491 39.9799 133.144 40.392 131.495 40.392C130.028 40.392 128.771 40.0704 127.726 39.427C126.68 38.7837 125.937 37.9293 125.494 36.8638L127.756 35.5671C127.997 36.2908 128.45 36.8638 129.113 37.286C129.776 37.7082 130.57 37.9192 131.495 37.9192C132.36 37.9192 133.073 37.7584 133.636 37.4368C134.199 37.095 134.481 36.5723 134.481 35.8686C134.481 35.2856 134.189 34.8232 133.606 34.4815C133.023 34.1196 132.32 33.8382 131.495 33.6371C130.671 33.416 129.847 33.1647 129.022 32.8832C128.198 32.6018 127.495 32.1394 126.912 31.4961C126.329 30.8527 126.037 30.0285 126.037 29.0233C126.037 27.7165 126.54 26.641 127.545 25.7966C128.57 24.9522 129.847 24.5301 131.375 24.5301C132.601 24.5301 133.687 24.8115 134.631 25.3744C135.596 25.9172 136.32 26.6812 136.803 27.6663L134.601 28.9026C134.059 27.616 132.983 26.9727 131.375 26.9727C130.631 26.9727 129.998 27.1536 129.475 27.5155C128.952 27.8572 128.691 28.3498 128.691 28.9931ZM140.763 33.6673C141.025 35.0142 141.638 36.0596 142.603 36.8035C143.588 37.5473 144.794 37.9192 146.221 37.9192C148.212 37.9192 149.659 37.1855 150.564 35.7179L152.795 36.9844C151.328 39.2562 149.116 40.392 146.161 40.392C143.769 40.392 141.819 39.6482 140.311 38.1605C138.823 36.6527 138.079 34.7529 138.079 32.461C138.079 30.1893 138.813 28.2995 140.281 26.7917C141.748 25.2839 143.648 24.5301 145.98 24.5301C148.192 24.5301 149.991 25.3141 151.378 26.8822C152.785 28.4302 153.489 30.2999 153.489 32.4912C153.489 32.8732 153.459 33.2652 153.399 33.6673H140.763ZM145.98 27.0028C144.573 27.0028 143.407 27.4049 142.482 28.2091C141.557 28.9931 140.984 30.0486 140.763 31.3754H150.835C150.614 29.9481 150.051 28.8624 149.147 28.1186C148.242 27.3748 147.186 27.0028 145.98 27.0028Z" fill="white"/>
</svg>
