<svg width="25" height="30" viewBox="0 0 25 30" fill="none" xmlns="http://www.w3.org/2000/svg">
<path fill-rule="evenodd" clip-rule="evenodd" d="M13.0855 0.157434C13.4764 -0.0514856 13.9459 -0.052513 14.3379 0.154589L14.3768 0.175928L24.3274 5.86339C25.2219 6.37471 25.2248 7.66383 24.3324 8.1791L12.4398 15.0471V19.0415L17.9316 15.8659V18.6699L12.4398 21.8458V28.6627C12.4398 29.6906 11.3273 30.3331 10.4373 29.8191L0.667502 24.1771C0.254455 23.9386 0 23.4978 0 23.0207V8.48829C3.10487e-06 8.01134 0.254364 7.57054 0.667264 7.33197L13.0466 0.17901L13.0855 0.157434ZM2.42728 9.11885V22.3899L10.0125 26.7703V14.4163C10.0125 13.9392 10.267 13.4984 10.68 13.2598L21.4719 7.02754L13.7173 2.59525L2.42728 9.11885Z" fill="white"/>
</svg>
